# xmcd CD database file
#
# Track frame offsets:
#	150
#	15615
#	105225
#	139315
#	178572
#	240592
#	269605
#	271180
#
# Disc length: 4255 seconds
#
# Revision: 0
# Processed by: cddbd v1.5.1PL2 Copyright (c) Steve Scherf et al.
# Submitted via: CDex 1.70beta2
#
DISCID=66109d08
DTITLE=Oreade music - My Music for Massage
DYEAR=1900
DGENRE=New Age
TTITLE0=Morgaine
TTITLE1=At This Second
TTITLE2=First Light
TTITLE3=Mary Magdalena
TTITLE4=Health Music Part 1
TTITLE5=Giochi d'Acqua
TTITLE6=An Easy Silence
TTITLE7=We Are One Light
EXTD=
EXTT0=
EXTT1=
EXTT2=
EXTT3=
EXTT4=
EXTT5=
EXTT6=
EXTT7=
PLAYORDER=
